# xmcd
#
# Track frame offsets: 
#        150
#        15293
#        35630
#        47695
#        60556
#        83420
#        102403
#        116538
#        128476
#        144954
#        170479
#        191866
#
# Disc length: 2779 seconds
#
# Revision: 0
# Processed by: cddbd v1.5.2PL0 Copyright (c) Steve Scherf et al.
# Submitted via: ExactAudioCopy v0.99pb4
#
DISCID=930ad90c
DTITLE=Various Artist - Paramount Blues Festival 2007
DYEAR=2007
DGENRE=Blues
TTITLE0=Matt Hendricks - Ol Milwaukee (What a Place to Be)
TTITLE1=The Back Alley Band - Overheated
TTITLE2=Sue DaBaco and Wise Fools - No Kinda Love
TTITLE3=Michael Ammons and the Water Street Hot Shots - Bean Grinder Blu
TTITLE3=es
TTITLE4=Eric Noden - Midwest Blues
TTITLE5=Michael "Hawkeye" Herman - Rocket to Chicago
TTITLE6=Rory Block - Look What the Lord Has Done
TTITLE7=Steve Cohen Blues? Band - What Is It? (About Love)
TTITLE8=Billy Flynn - I Feel It
TTITLE9=Bob Stroger - Bob Is Back In Town
TTITLE10=Zac Harmon - Sugarman
TTITLE11=Norma Jean Bruso - Untrue Lover
EXTD=
EXTT0=
EXTT1=
EXTT2=
EXTT3=
EXTT4=
EXTT5=
EXTT6=
EXTT7=
EXTT8=
EXTT9=
EXTT10=
EXTT11=
PLAYORDER=
